<?xml version="1.0" encoding="UTF-8"?>
<svg xmlns="http://www.w3.org/2000/svg" xmlns:xlink="http://www.w3.org/1999/xlink" viewBox="0 0 24 24" width="24px" height="24px">
<g id="surface170381">
<path style=" stroke:none;fill-rule:nonzero;fill:rgb(100%,100%,100%);fill-opacity:1;" d="M 12.476562 23.039062 C 6.390625 23.039062 1.4375 18.089844 1.4375 12 C 1.4375 5.910156 6.390625 0.960938 12.476562 0.960938 C 15.234375 0.960938 17.875 1.980469 19.914062 3.839844 L 20.285156 4.175781 L 16.644531 7.820312 L 16.308594 7.53125 C 15.238281 6.613281 13.878906 6.109375 12.476562 6.109375 C 9.230469 6.109375 6.585938 8.753906 6.585938 12 C 6.585938 15.246094 9.230469 17.890625 12.476562 17.890625 C 14.820312 17.890625 16.671875 16.691406 17.542969 14.65625 L 12 14.65625 L 12 9.683594 L 22.824219 9.699219 L 22.902344 10.078125 C 23.46875 12.757812 23.015625 16.699219 20.726562 19.519531 C 18.835938 21.855469 16.058594 23.039062 12.476562 23.039062 Z M 12.476562 23.039062 "/>
</g>
</svg>
